<?xml version="1.0" encoding="UTF-8"?>
<svg id="Layer_1" xmlns="http://www.w3.org/2000/svg" xmlns:xlink="http://www.w3.org/1999/xlink" viewBox="0 0 1949.5 361.98">
  <defs>
    <style>
      .cls-1 {
        fill: url(#linear-gradient-2);
      }

      .cls-2 {
        fill: url(#linear-gradient-4);
      }

      .cls-3 {
        fill: url(#linear-gradient-3);
      }

      .cls-4 {
        fill: url(#linear-gradient-5);
      }

      .cls-5 {
        fill: url(#linear-gradient-8);
      }

      .cls-6 {
        fill: url(#linear-gradient-7);
      }

      .cls-7 {
        fill: url(#linear-gradient-9);
      }

      .cls-8 {
        fill: url(#linear-gradient-6);
      }

      .cls-9 {
        fill: url(#linear-gradient);
      }
    </style>
    <linearGradient id="linear-gradient" x1="9.98" y1="224.22" x2="1868.71" y2="224.22" gradientUnits="userSpaceOnUse">
      <stop offset="0" stop-color="#bd70e1"/>
      <stop offset="1" stop-color="#3ca0e7"/>
    </linearGradient>
    <linearGradient id="linear-gradient-2" x1="9.98" y1="161.78" x2="1868.71" y2="161.78" xlink:href="#linear-gradient"/>
    <linearGradient id="linear-gradient-3" x1="1.19" y1="218.4" x2="1938.54" y2="218.4" xlink:href="#linear-gradient"/>
    <linearGradient id="linear-gradient-4" x1="1.19" y1="171.34" x2="1938.54" y2="171.34" xlink:href="#linear-gradient"/>
    <linearGradient id="linear-gradient-5" x1="1.19" y1="171.79" x2="1938.54" y2="171.79" xlink:href="#linear-gradient"/>
    <linearGradient id="linear-gradient-6" x1="1.19" y1="218.4" x2="1938.54" y2="218.4" xlink:href="#linear-gradient"/>
    <linearGradient id="linear-gradient-7" x1="1.19" y1="171.79" x2="1938.54" y2="171.79" xlink:href="#linear-gradient"/>
    <linearGradient id="linear-gradient-8" x1="1.19" y1="189.99" x2="1938.54" y2="189.99" xlink:href="#linear-gradient"/>
    <linearGradient id="linear-gradient-9" x1="1.19" y1="220.39" x2="1938.54" y2="220.39" xlink:href="#linear-gradient"/>
  </defs>
  <path class="cls-9" d="M140.5,361.86c-22.47.82-43.36-5.1-63.12-15.32-16.1-8.32-30.35-19.24-42.59-32.6-8.46-9.24-15.42-19.58-21.16-30.78-5.44-10.61-9.18-21.73-11.47-33.37-1.91-9.7-2.73-19.56-1.73-29.36,1.01-9.93,2.84-19.77,5.94-29.36,3.45-10.64,8.04-20.73,13.46-30.45,1.87-3.35,4.07-6.53,6.23-9.71,7.16-10.54,14.09-21.25,23.46-30.08,9.29-8.76,19.66-15.91,31.15-21.48,11.25-5.46,23.09-9.11,35.37-11.19,11.94-2.02,24-1.96,36.07-1.16,12.02.8,23.72,3.13,35.18,6.81,12.69,4.08,24.63,9.7,35.9,16.86,11.69,7.43,22.52,15.94,31.83,26.15,7.47,8.2,14.54,16.83,21.13,25.75,14.15,19.12,27.65,38.71,41.85,57.79,10.46,14.06,21.51,27.68,32.5,41.34,5.03,6.25,10.41,12.25,15.89,18.12,10.22,10.92,22.82,18.25,36.88,22.98,8.04,2.7,16.4,4.09,24.95,4.26,11.95.24,23.77-.52,35.33-3.76,12.09-3.38,23.15-8.69,32.84-16.85,8.36-7.04,14.56-15.59,19.08-25.43.76-1.65,1.78-2.3,3.54-2.29,13.18.03,26.37.04,39.55,0,2.08,0,2.75.57,2.08,2.75-5.71,18.47-14.51,35.2-27.38,49.75-12.82,14.5-28.31,25.26-46,32.8-7.61,3.24-15.46,6.16-23.46,8.17-19.17,4.83-38.56,4.84-58.04,1.42-20.74-3.65-40.16-10.67-57.86-22.1-12.43-8.03-23.56-17.68-32.79-29.29-9.04-11.37-17.57-23.16-26.59-34.55-6.52-8.24-13.61-16.03-20.22-24.21-7.9-9.78-15.6-19.71-23.29-29.65-6.59-8.52-12.84-17.32-19.63-25.68-7.17-8.83-14.77-17.36-23.85-24.29-7.53-5.75-15.11-11.55-23.23-16.37-10.71-6.35-22.44-10.46-35.12-9.83-12.09.6-24.04,2.68-35.08,7.95-7.06,3.37-14.18,6.94-20.51,11.47-12.51,8.94-21.98,20.6-28.34,34.77-4.81,10.73-7.21,22.01-7.36,33.6-.09,6.83,1.2,13.76,2.57,20.51,2.25,11.12,7.09,21.25,13.65,30.48,6.91,9.73,15.48,17.74,25.57,24.17,12.29,7.83,25.73,12.45,40.14,13.89,14.08,1.41,27.78-.29,40.81-6.46,12.38-5.86,23.07-13.99,33.04-23.2,2.64-2.44,5.21-4.95,7.88-7.35,11.15-10.07,19.41-22.51,28.51-34.28,1.93-2.5,4.06-4.85,6.05-7.31.94-1.17,1.64-1.16,2.62.02,6.89,8.28,13.83,16.52,20.77,24.76,3.3,3.92,6.54,7.91,9.98,11.71,1.76,1.94,1.59,3.64.14,5.47-3.29,4.15-6.37,8.52-9.99,12.37-7.85,8.35-15.79,16.64-24.07,24.57-7.47,7.15-15,14.35-23.31,20.45-7.32,5.37-15.35,10.25-23.76,13.58-15.88,6.29-32.18,11.68-49.42,13.06-4.17.33-8.38.05-12.58.05Z"/>
  <path class="cls-1" d="M478.8,244.86c-24.48,0-48.97,0-73.45,0-5.38,0-5.97-.58-5.97-5.82,0-10.27,0-20.55,0-30.82,0-4.79.72-5.52,5.5-5.52,36.38,0,72.77,0,109.15,0,5.09,0,5.59-.52,4.04-5.52-4.58-14.79-11.49-28.27-21.95-39.9-9.06-10.08-19.77-17.68-32.45-22.25-14.92-5.38-30.31-6.55-46-4.03-16.27,2.61-30.71,9.43-43.79,19.17-13.37,9.96-24.12,22.43-33.5,36.16-2.62,3.84-4.98,8.09-9.5,10.2-8.33,3.91-15.77,2.22-21.44-5.1-3.77-4.87-7.36-9.89-10.84-14.97-3.61-5.27-3.39-13.55.7-18.62,5.75-7.11,11.75-14.01,17.72-20.93,9.5-11,20.48-20.38,32.12-28.99,15.12-11.2,31.62-19.75,49.7-25.1,13.3-3.93,26.91-5,40.65-3.43,9.33,1.06,18.7,2.17,27.85,4.17,15.12,3.31,29.07,9.67,41.61,18.78,11.71,8.51,21.65,18.77,29.72,30.88,5.48,8.22,10.2,16.8,13.89,25.95,5.79,14.34,9.79,29.13,11.34,44.57,1.09,10.8.04,21.52-.7,32.25-.36,5.32-4.59,8.82-10.19,8.85-8.99.06-17.98.02-26.97.02-15.75,0-31.5,0-47.26,0Z"/>
  <g>
    <path class="cls-3" d="M777.42,106.09c15.24,7.99,27.15,19.83,35.73,35.51,8.58,15.69,12.87,34.62,12.87,56.82v144.27h-50.16v-136.72c0-21.9-5.48-38.69-16.42-50.38-10.95-11.69-25.9-17.53-44.83-17.53s-33.96,5.85-45.06,17.53c-11.1,11.69-16.65,28.49-16.65,50.38v136.72h-50.6V98.1h50.6v27.97c8.28-10.06,18.87-17.9,31.74-23.53,12.87-5.62,26.56-8.43,41.06-8.43,19.23,0,36.47,3.99,51.71,11.98Z"/>
    <path class="cls-2" d="M992.93,139.38h-45.28v203.3h-51.05v-203.3h-28.85v-41.28h28.85v-17.31c0-28.11,7.47-48.61,22.42-61.48,14.94-12.87,38.4-19.31,70.36-19.31v42.17c-15.39,0-26.19,2.89-32.4,8.66-6.21,5.77-9.32,15.76-9.32,29.96v17.31h45.28v41.28Z"/>
    <path class="cls-4" d="M1040.42,56.37c-6.21-6.21-9.32-13.91-9.32-23.08s3.11-16.87,9.32-23.08,13.91-9.32,23.08-9.32,16.42,3.11,22.64,9.32c6.21,6.21,9.32,13.91,9.32,23.08s-3.11,16.87-9.32,23.08c-6.22,6.21-13.76,9.32-22.64,9.32s-16.87-3.11-23.08-9.32ZM1088.36,98.1v244.59h-50.6V98.1h50.6Z"/>
    <path class="cls-8" d="M1330.06,106.09c15.24,7.99,27.15,19.83,35.73,35.51,8.58,15.69,12.87,34.62,12.87,56.82v144.27h-50.16v-136.72c0-21.9-5.48-38.69-16.42-50.38-10.95-11.69-25.9-17.53-44.83-17.53s-33.96,5.85-45.06,17.53c-11.1,11.69-16.65,28.49-16.65,50.38v136.72h-50.6V98.1h50.6v27.97c8.28-10.06,18.87-17.9,31.74-23.53,12.87-5.62,26.56-8.43,41.06-8.43,19.23,0,36.47,3.99,51.71,11.98Z"/>
    <path class="cls-6" d="M1445.69,56.37c-6.21-6.21-9.32-13.91-9.32-23.08s3.11-16.87,9.32-23.08c6.22-6.21,13.91-9.32,23.08-9.32s16.42,3.11,22.64,9.32c6.21,6.21,9.32,13.91,9.32,23.08s-3.11,16.87-9.32,23.08c-6.22,6.21-13.76,9.32-22.64,9.32s-16.87-3.11-23.08-9.32ZM1493.63,98.1v244.59h-50.6V98.1h50.6Z"/>
    <path class="cls-5" d="M1619.25,139.38v135.39c0,9.18,2.14,15.76,6.44,19.75,4.29,4,11.61,5.99,21.97,5.99h31.07v42.17h-39.95c-22.79,0-40.25-5.33-52.38-15.98-12.14-10.65-18.2-27.97-18.2-51.94v-135.39h-28.85v-41.28h28.85v-60.81h51.05v60.81h59.48v41.28h-59.48Z"/>
    <path class="cls-7" d="M1947.73,239.26h-186.88c1.48,19.53,8.73,35.22,21.75,47.05,13.02,11.84,29,17.76,47.94,17.76,27.22,0,46.46-11.39,57.71-34.18h54.6c-7.4,22.49-20.79,40.91-40.17,55.27-19.39,14.36-43.43,21.53-72.13,21.53-23.38,0-44.32-5.25-62.81-15.76-18.5-10.5-33-25.3-43.5-44.39-10.51-19.09-15.76-41.21-15.76-66.36s5.1-47.28,15.31-66.36c10.21-19.09,24.56-33.81,43.06-44.17,18.49-10.36,39.73-15.54,63.7-15.54s43.65,5.04,61.7,15.09c18.05,10.06,32.11,24.19,42.17,42.39,10.06,18.2,15.09,39.14,15.09,62.81,0,9.18-.6,17.46-1.78,24.86ZM1896.68,198.42c-.3-18.64-6.96-33.58-19.97-44.83-13.03-11.24-29.15-16.87-48.39-16.87-17.46,0-32.4,5.55-44.83,16.65s-19.83,26.12-22.19,45.06h135.39Z"/>
  </g>
</svg>